<?xml version="1.0" encoding="UTF-8" standalone="no"?>
<!-- Created with Inkscape (http://www.inkscape.org/) -->

<svg
   width="132.60384mm"
   height="184.86539mm"
   viewBox="0 0 132.60384 184.86539"
   version="1.1"
   id="svg1"
   xml:space="preserve"
   xmlns="http://www.w3.org/2000/svg"
   xmlns:svg="http://www.w3.org/2000/svg"><defs
     id="defs1" /><g
     id="layer1"
     transform="translate(-38.575074,-56.067313)"><path
       d="M 92.214666,129.11489 C 83.473081,124.59631 62.345688,83.639633 56.733628,88.141684 c -5.612061,4.502051 -8.390186,23.622326 0.05995,35.410756 8.45013,11.78843 27.285156,20.05046 31.733463,26.78493 4.448307,6.73447 3.813721,11.7967 2.761589,13.0638 -1.052133,1.26711 -37.982178,-25.22636 -47.248796,-20.36258 -9.266618,4.86379 -5.87251,17.50591 3.629753,27.39678 9.502262,9.89087 39.642024,6.88743 45.547607,11.30474 5.905586,4.4173 6.763416,11.36881 4.2354,11.36881 -2.528011,0 -30.154231,-6.69313 -39.846663,-4.99194 -9.692432,1.70119 -14.107666,8.24549 0.02481,15.17633 14.13247,6.93085 37.260774,1.83348 41.192317,5.83117 3.931542,3.99769 1.405602,5.89938 -1.544091,6.11436 -2.949691,0.21497 -22.766569,-1.01493 -29.72015,0.0496 -6.953581,1.06453 1.283642,11.58999 4.872054,14.3247 3.588411,2.73472 16.658415,3.97702 20.451465,3.3383 3.79305,-0.63872 7.579894,-5.49424 10.541994,-4.23333 2.96209,1.2609 0.64905,9.48366 1.70532,10.9554 1.05627,1.47175 9.69863,1.88102 10.9554,-0.0186 1.25677,-1.89963 -2.1208,-7.79488 -0.0186,-10.54199 2.1022,-2.74712 6.74894,2.30683 13.70046,-0.23358 6.95151,-2.54042 22.53092,-14.58309 22.94433,-21.53874 0.41341,-6.95565 -27.39264,5.73815 -34.55913,5.53971 -5.06016,-0.82682 -7.17475,-4.41523 -4.01629,-6.31692 3.15846,-1.9017 47.19712,-11.46184 50.55402,-19.89956 3.3569,-8.43773 0.82682,-7.16856 -4.43797,-7.15822 -5.2648,0.0103 -36.02261,12.91911 -39.19348,7.86515 -3.17086,-5.05395 41.49411,-18.60352 46.10365,-29.7863 4.60954,-11.18278 6.07095,-24.67239 -0.0455,-26.34878 -6.11642,-1.67638 -30.5139,28.50886 -40.21253,27.04952 -9.69863,-1.45935 -0.21911,-4.42557 3.98736,-9.92188 4.20646,-5.4963 27.35957,-24.91011 27.558,-31.86575 0.19844,-6.95565 2.0836,-13.91543 -5.71541,-14.74432 -7.79901,-0.82889 -26.72085,28.0789 -30.94178,25.55503 -4.22093,-2.52388 10.93267,-16.24914 13.22917,-29.742892 2.2965,-13.49375 -5.31648,-27.396777 -9.53121,-26.541015 -4.21473,0.855761 -4.00389,0.84956 -3.99768,4.644677 0.006,3.795118 2.13527,16.43724 -0.38241,23.607862 -2.51768,7.170618 -2.71611,12.439548 -4.82658,11.178648 -2.11046,-1.26091 -2.12287,-9.05992 -0.86816,-15.17427 1.2547,-6.114355 4.81624,-19.188493 2.70164,-23.190316 -2.1146,-4.001823 -6.35827,-19.382796 -22.37176,-15.358235 -16.013493,4.02456 -14.934489,18.574576 -13.435872,28.267008 1.498616,9.692432 5.719547,17.274393 9.320361,26.543083 3.600814,9.26868 4.487581,19.5895 0.584977,17.57205 z"
       fill="#5ab286"
       id="path1"
       style="fill:#398628;fill-opacity:1;stroke-width:0.206706" /></g></svg>
